<svg xmlns="http://www.w3.org/2000/svg" viewBox="0 0 122.8 104.84"><defs><style>.cls-1{fill:#dadada;}.cls-11,.cls-2,.cls-5,.cls-8{fill:none;}.cls-2{stroke:#dadada;}.cls-11,.cls-2,.cls-3,.cls-5,.cls-8,.cls-9{stroke-miterlimit:10;}.cls-11,.cls-2,.cls-3,.cls-5,.cls-8{stroke-width:5px;}.cls-10,.cls-3,.cls-9{fill:#937a94;}.cls-11,.cls-3{stroke:#937a94;}.cls-4{fill:#9d9d9c;}.cls-5{stroke:#9d9d9c;}.cls-12,.cls-6{fill:#fff;}.cls-7{fill:#706f6f;}.cls-8{stroke:#706f6f;}.cls-9{stroke:#fff;}.cls-12{font-size:7.04px;font-family:Geometric706BT-BlackCondensedB, Geometr706 BlkCn BT;font-weight:800;}</style></defs><title>Datový zdroj 7</title><g id="Vrstva_2" data-name="Vrstva 2"><g id="Vrstva_1-2" data-name="Vrstva 1"><rect class="cls-1" x="2.5" y="3.42" width="66.15" height="90.55" rx="2.83"/><rect class="cls-2" x="2.5" y="3.42" width="66.15" height="90.55" rx="2.83"/><line class="cls-3" x1="14.1" x2="14.1" y2="97.29"/><rect class="cls-4" x="52.55" y="27.02" width="44.87" height="80.76" rx="1.42" transform="translate(-14.71 113.43) rotate(-69.12)"/><rect class="cls-5" x="52.55" y="27.02" width="44.87" height="80.76" rx="1.42" transform="translate(-14.71 113.43) rotate(-69.12)"/><polygon class="cls-6" points="74.99 67.4 120.71 60.83 45.26 32.04 74.99 67.4"/><rect class="cls-7" x="26.59" y="64.89" width="41.16" height="22.87" rx="1.42" transform="translate(-29.65 29.96) rotate(-27.17)"/><rect class="cls-8" x="26.59" y="64.89" width="41.16" height="22.87" rx="1.42" transform="translate(-29.65 29.96) rotate(-27.17)"/><rect class="cls-6" x="28.77" y="72.65" width="10.76" height="14.61" transform="translate(-32.74 24.42) rotate(-27.17)"/><line class="cls-9" x1="39.01" y1="70.07" x2="55.06" y2="61.83"/><line class="cls-9" x1="41.84" y1="75.57" x2="54.04" y2="69.31"/><line class="cls-9" x1="35.29" y1="93.95" x2="51.96" y2="85.4"/><line class="cls-9" x1="43.25" y1="78.33" x2="60.09" y2="69.69"/><line class="cls-9" x1="44.97" y1="81.67" x2="63.23" y2="72.3"/><line class="cls-9" x1="40.42" y1="72.82" x2="58.69" y2="63.45"/><rect class="cls-10" x="35.57" y="74.9" width="41.16" height="22.87" rx="1.42"/><rect class="cls-11" x="35.57" y="74.9" width="41.16" height="22.87" rx="1.42"/><rect class="cls-6" x="37.53" y="76.32" width="10.76" height="14.61"/><line class="cls-9" x1="51.75" y1="77.05" x2="69.8" y2="77.05"/><line class="cls-9" x1="51.75" y1="83.24" x2="65.47" y2="83.24"/><line class="cls-9" x1="37.53" y1="96.6" x2="56.28" y2="96.6"/><line class="cls-9" x1="51.75" y1="86.34" x2="70.68" y2="86.34"/><line class="cls-9" x1="51.75" y1="90.09" x2="72.28" y2="90.09"/><line class="cls-9" x1="51.75" y1="80.14" x2="72.28" y2="80.14"/><text class="cls-12" transform="translate(41.84 10.54) scale(1.76 1)">2000</text></g></g></svg>