<svg xmlns="http://www.w3.org/2000/svg" viewBox="0 0 132 113.53"><defs><style>.cls-1{fill:none;}.cls-2{fill:#937a94;}</style></defs><title>Datový zdroj 5</title><g id="Vrstva_2" data-name="Vrstva 2"><g id="Vrstva_1-2" data-name="Vrstva 1"><path class="cls-1" d="M12.26,5a7.26,7.26,0,1,0,7.25,7.26A7.27,7.27,0,0,0,12.26,5Z"/><polygon class="cls-1" points="56.79 20.82 75.21 20.82 75.21 16.34 75.21 11.22 75.21 5 56.79 5 56.79 10.85 56.79 15.93 56.79 20.82"/><path class="cls-1" d="M119.74,5A7.26,7.26,0,1,0,127,12.26,7.26,7.26,0,0,0,119.74,5Z"/><path class="cls-1" d="M80.21,25.82H51.79V17.1a46.67,46.67,0,1,0,28.42.66Z"/><path class="cls-2" d="M119.74,0a12.26,12.26,0,0,0-12,10.11H80.21V0H51.79V10.59H24.39a12.26,12.26,0,1,0-.35,5H42a51.68,51.68,0,1,0,44.91-.48h20.91A12.25,12.25,0,1,0,119.74,0ZM12.26,19.51a7.26,7.26,0,1,1,7.25-7.25A7.26,7.26,0,0,1,12.26,19.51ZM56.79,5H75.21V20.82H56.79V5Zm54.85,56.86A46.67,46.67,0,1,1,51.79,17.1v8.72H80.21V17.76A46.76,46.76,0,0,1,111.64,61.86Zm8.1-42.35A7.26,7.26,0,1,1,127,12.26,7.26,7.26,0,0,1,119.74,19.51Z"/><path class="cls-2" d="M58.54,47.82h4.79v25.4H58.54Zm2.13,20.79H75.56v4.61H60.67Z"/></g></g></svg>