<svg xmlns="http://www.w3.org/2000/svg" viewBox="0 0 85.73 98"><defs><style>.cls-1{fill:#937a94;}</style></defs><title>Datový zdroj 8</title><g id="Vrstva_2" data-name="Vrstva 2"><g id="Vrstva_1-2" data-name="Vrstva 1"><path class="cls-1" d="M63,0,9.38,63.91a3.3,3.3,0,0,0-.64,1.51l-6,24L0,98l8.09-4.27,22.52-9.87A3.49,3.49,0,0,0,32.12,83L85.73,19.09ZM28,78.28h-.22v.22a49,49,0,0,1-7.29,3.86,6.24,6.24,0,0,0-1.71.86l-7.51-6.44c.21-.64.21-1.28.43-1.92,1.29-4.94,2.14-7.08,2.57-7.72v-.22l.65-.64L28.47,77.64ZM23.1,66.49l-6.65-5.58L60.86,8.15l6.43,5.58Z"/></g></g></svg>