<svg xmlns="http://www.w3.org/2000/svg" viewBox="0 0 134.95 94.05"><defs><style>.cls-1{fill:#706f6f;}.cls-2{fill:#dadada;}.cls-3{fill:#fff;}.cls-4{fill:#9d9d9c;}.cls-5{fill:#937a94;}</style></defs><title>Datový zdroj 3</title><g id="Vrstva_2" data-name="Vrstva 2"><g id="Vrstva_1-2" data-name="Vrstva 1"><rect class="cls-1" x="65.88" y="49.01" width="3.18" height="44.37"/><rect class="cls-2" width="134.95" height="53.63" rx="8.5"/><rect class="cls-3" x="11.06" y="6.8" width="115.12" height="39.2" rx="8.5"/><rect class="cls-4" x="19.1" y="31.66" width="29.44" height="62.06"/><rect class="cls-2" x="17.79" y="31.42" width="32.07" height="1.26"/><rect class="cls-2" x="17.79" y="92.18" width="32.07" height="1.87"/><path class="cls-5" d="M27.3,18.88h3.9c2.26,0,4.09.57,4.09,2.7a2.58,2.58,0,0,1-1.36,2.33V24a2.46,2.46,0,0,1,1.86,2.53c0,2.23-1.93,3.2-4.26,3.2H27.3Zm3.83,4.23c.93,0,1.37-.43,1.37-1.1s-.44-.93-1.37-.93h-1v2Zm.2,4.39c1.13,0,1.67-.4,1.67-1.2s-.54-1.09-1.67-1.09H30.17V27.5Z"/><path class="cls-5" d="M37.49,18.88h2.87V29.7H37.49Z"/><path class="cls-5" d="M42.76,18.88h2.86V27.3h4.09v2.4h-7Z"/><path class="cls-5" d="M51.58,18.88h2.86V27.3h4.1v2.4h-7Z"/><path class="cls-5" d="M60.4,18.88h3.9c2.26,0,4.1.57,4.1,2.7A2.59,2.59,0,0,1,67,23.91V24a2.46,2.46,0,0,1,1.86,2.53c0,2.23-1.93,3.2-4.26,3.2H60.4Zm3.83,4.23c.94,0,1.37-.43,1.37-1.1s-.43-.93-1.37-.93h-1v2Zm.2,4.39c1.14,0,1.67-.4,1.67-1.2s-.53-1.09-1.67-1.09H63.27V27.5Z"/><path class="cls-5" d="M70.13,24.24c0-3.56,2-5.56,5-5.56s5,2,5,5.56-2,5.66-5,5.66S70.13,27.8,70.13,24.24Zm7.12,0c0-2-.8-3.1-2.09-3.1s-2.1,1.14-2.1,3.1.8,3.2,2.1,3.2S77.25,26.2,77.25,24.24Z"/><path class="cls-5" d="M83.88,18.88h3.46l3.3,10.82h-3l-1.23-5.26c-.27-1-.53-2.35-.8-3.43h-.07c-.23,1.1-.5,2.4-.76,3.43L83.52,29.7H80.59ZM83,25.19h5.29V27.4H83Z"/><path class="cls-5" d="M91.51,18.88H95.6c2.33,0,4.33.8,4.33,3.5s-2,3.69-4.33,3.69H94.37V29.7H91.51Zm3.89,4.93c1.14,0,1.73-.5,1.73-1.43s-.59-1.24-1.73-1.24h-1v2.67Zm-.31,1.51L97,23.42l3.51,6.28h-3.2Z"/><path class="cls-5" d="M102,18.88h3.19c3.3,0,5.56,1.53,5.56,5.36s-2.26,5.46-5.39,5.46H102Zm3,8.52c1.56,0,2.79-.63,2.79-3.16s-1.23-3.06-2.79-3.06h-.17V27.4Z"/><rect class="cls-1" x="119.11" y="46" width="1.55" height="48.05"/><rect class="cls-1" x="89.29" y="50.01" width="0.88" height="2.32"/><rect class="cls-1" x="100.78" y="30.13" width="1.55" height="38.21" transform="translate(150.79 -52.31) rotate(90)"/><rect class="cls-4" x="86.97" y="52.33" width="27.28" height="29.58"/><rect class="cls-1" x="110.39" y="50.01" width="0.88" height="2.32"/><rect class="cls-2" x="89.01" y="54.77" width="22.8" height="9.39"/></g></g></svg>