<svg xmlns="http://www.w3.org/2000/svg" viewBox="0 0 116.6 119.96"><defs><style>.cls-1{fill:#706f6f;}.cls-2{fill:#9d9d9c;}.cls-3{fill:#937a94;}.cls-4{fill:#dadada;}.cls-5{fill:#fff;}</style></defs><title>Datový zdroj 4</title><g id="Vrstva_2" data-name="Vrstva 2"><g id="Vrstva_1-2" data-name="Vrstva 1"><polygon class="cls-1" points="88.16 85.55 34.87 108.29 0 22.74 53.29 0 88.16 85.55"/><path class="cls-2" d="M7.24,26.72l1.56-.65,2.33,2.09,1.08,1.1,0,0a23.07,23.07,0,0,1-1.09-2.17l-.69-1.7,1.46-.61,2.36,5.89-1.56.66L10.38,29.2,9.31,28.12l0,0a24.23,24.23,0,0,1,1.1,2.16L11.05,32l-1.45.6Z"/><path class="cls-2" d="M14.29,28a2.45,2.45,0,0,1,1.18-3.27,2,2,0,0,1,2.81,1.39,3.69,3.69,0,0,1,.2.68L16,27.85a1,1,0,0,0,1.32.3,2.09,2.09,0,0,0,.8-.65l.86.72a3.26,3.26,0,0,1-1.4,1.2A2.34,2.34,0,0,1,14.29,28Zm2.55-1.7a.59.59,0,0,0-.86-.4.77.77,0,0,0-.45,1Z"/><path class="cls-2" d="M17.89,23.85l1.5-.63L20.49,25c.25.42.47.86.73,1.3h0c-.12-.5-.24-1-.31-1.49l-.35-2.07,1.29-.54,1.19,1.72c.29.41.54.84.82,1.27l0,0c-.11-.5-.26-1-.37-1.45l-.43-2,1.41-.59.8,5-1.77.74-.95-1.44c-.24-.39-.48-.78-.75-1.25l0,0c.13.53.25,1,.34,1.41l.33,1.71-1.74.72Z"/><path class="cls-2" d="M26.51,24.91l.29-1.24a2,2,0,0,0,1.26,0c.32-.13.41-.28.34-.46S27.85,23,27.33,23a1.6,1.6,0,0,1-1.65-.87A1.7,1.7,0,0,1,26.85,20a2.77,2.77,0,0,1,1.87-.08l-.3,1.21a1.74,1.74,0,0,0-1.06,0c-.26.11-.36.24-.29.42s.52.16,1,.14a1.54,1.54,0,0,1,1.68.89c.34.85-.05,1.78-1.3,2.3A3.15,3.15,0,0,1,26.51,24.91Z"/><path class="cls-2" d="M29.27,19.08l1.24-.52.27.37,0,0a2,2,0,0,1,1-1c1.05-.43,2.08.19,2.64,1.59.63,1.56.08,2.82-.86,3.22a1.52,1.52,0,0,1-1.18,0l.33.67.5,1.25-1.52.64Zm3.63,1.06c-.3-.75-.63-1-1-.79a.8.8,0,0,0-.47.58l.66,1.66a.88.88,0,0,0,.66,0C33.06,21.42,33.25,21,32.9,20.14Z"/><path class="cls-2" d="M35.44,20.28c-.38-.94.12-1.77,1.75-2.66-.16-.31-.42-.37-.81-.21a2.56,2.56,0,0,0-1,.85l-.94-.79a4,4,0,0,1,1.71-1.42c1.15-.48,2.1-.14,2.69,1.35l1,2.52-1.24.52-.28-.39h0a2,2,0,0,1-1,1.06A1.4,1.4,0,0,1,35.44,20.28Zm2.37-1.12-.25-.62c-.68.42-.82.75-.72,1s.28.27.54.16A.77.77,0,0,0,37.81,19.16Z"/><path class="cls-2" d="M39.07,15l1.24-.52.27.37h0a1.94,1.94,0,0,1,1-1c1-.44,2.08.18,2.64,1.58.62,1.56.07,2.82-.87,3.22a1.49,1.49,0,0,1-1.17,0l.33.67.5,1.25-1.53.64ZM42.7,16c-.29-.74-.63-1-1-.79a.8.8,0,0,0-.47.58l.67,1.66a.85.85,0,0,0,.65,0C42.87,17.32,43.05,16.9,42.7,16Z"/><path class="cls-2" d="M44.89,15.18a2.45,2.45,0,0,1,1.17-3.27,2.05,2.05,0,0,1,2.82,1.39,3.43,3.43,0,0,1,.19.67L46.55,15a1,1,0,0,0,1.32.3,2,2,0,0,0,.79-.65l.87.71a3.27,3.27,0,0,1-1.4,1.21A2.34,2.34,0,0,1,44.89,15.18Zm2.55-1.71a.61.61,0,0,0-.87-.4.8.8,0,0,0-.45.95Z"/><path class="cls-2" d="M48.87,10.86l1.24-.52.42.74,0,0a1.67,1.67,0,0,1,.9-1.42,1.33,1.33,0,0,1,.59-.13L52.35,11a2.32,2.32,0,0,0-.53.14,1.12,1.12,0,0,0-.62,1.14l1,2.52-1.52.64Z"/><polygon class="cls-3" points="93 103.89 42.28 87.82 65.88 9.83 116.6 25.9 93 103.89"/><path class="cls-4" d="M67.28,19.79a3.19,3.19,0,0,1,4-2.41A3,3,0,0,1,73,18.85l-1.2.81a1.61,1.61,0,0,0-.89-.81c-.74-.23-1.58.26-1.93,1.42s0,2.05.78,2.3a1.57,1.57,0,0,0,1.3-.19l.54,1.34a2.66,2.66,0,0,1-2.34.29A3.13,3.13,0,0,1,67.28,19.79Z"/><path class="cls-4" d="M72.34,23.32c.31-1,1.26-1.35,3.16-1,.07-.36-.09-.59-.52-.72a2.72,2.72,0,0,0-1.33,0l-.25-1.28a4.16,4.16,0,0,1,2.32,0c1.25.4,1.79,1.33,1.3,2.94l-.83,2.74-1.35-.43,0-.51h0a2,2,0,0,1-1.51.17A1.53,1.53,0,0,1,72.34,23.32ZM75,24l.21-.67c-.83-.13-1.16,0-1.24.32s.05.4.34.49A.76.76,0,0,0,75,24Z"/><path class="cls-4" d="M77.86,24.54l.53-1.71-.64-.21.38-1.26.75.18.58-1.22,1.37.43L80.44,22l1.1.35-.4,1.32L80,23.35,79.53,25c-.17.54,0,.8.36.9a1.47,1.47,0,0,0,.45.06l-.13,1.3A4,4,0,0,1,79,27.12C77.77,26.72,77.5,25.74,77.86,24.54Z"/><path class="cls-4" d="M81,26.07c.31-1,1.26-1.35,3.16-1,.07-.37-.09-.59-.51-.73a2.66,2.66,0,0,0-1.34,0L82,23.12a4.12,4.12,0,0,1,2.31,0c1.25.39,1.79,1.32,1.3,2.94l-.83,2.74-1.35-.43,0-.51h0a2,2,0,0,1-1.51.17A1.53,1.53,0,0,1,81,26.07Zm2.66.71.2-.67c-.83-.13-1.15.05-1.24.32s0,.41.34.5A.75.75,0,0,0,83.63,26.78Z"/><path class="cls-4" d="M86.43,27.44,88,22.31l1.65.53L88.07,28c-.11.34,0,.49.13.52l.18,0-.18,1.3a1.92,1.92,0,0,1-.85-.12C86.23,29.41,86.09,28.54,86.43,27.44Z"/><path class="cls-4" d="M89.27,27.54a2.49,2.49,0,0,1,3.17-1.82,2.58,2.58,0,0,1,1.61,3.34,2.49,2.49,0,0,1-3.18,1.82A2.56,2.56,0,0,1,89.27,27.54Zm3.08,1c.23-.75.18-1.28-.32-1.44s-.84.25-1.07,1-.17,1.29.33,1.44S92.12,29.27,92.35,28.52Z"/><path class="cls-4" d="M93.65,32.52a1.1,1.1,0,0,1,1-.73v0a1,1,0,0,1-.18-1,1.23,1.23,0,0,1,.82-.76v0A1.66,1.66,0,0,1,95,28.5a1.91,1.91,0,0,1,2.61-1.14,2.51,2.51,0,0,1,.73.37l1.79.57-.37,1.22-.69-.22a1.89,1.89,0,0,1-.08.53c-.36,1.17-1.37,1.36-2.44,1a2.33,2.33,0,0,1-.52-.24.31.31,0,0,0-.2.25c-.07.22.1.36.58.51l.72.23c1.2.38,1.78,1,1.51,1.88-.33,1.07-1.62,1.46-3.34.91C94.21,34,93.38,33.41,93.65,32.52Zm3.32.76c.08-.26-.14-.37-.55-.5L96,32.66a3.45,3.45,0,0,1-.68-.28.51.51,0,0,0-.28.3c-.09.31.25.57.81.75S96.89,33.55,97,33.28Zm.61-4c.14-.45,0-.74-.32-.83s-.58.05-.72.5,0,.76.31.86S97.44,29.8,97.58,29.32Z"/><path class="cls-4" d="M100,31.57l.93-3,1.65.52-.86,2.82c-.19.63-.08.84.25.94a.77.77,0,0,0,.82-.21l1-3.17,1.65.52-1.5,4.93-1.34-.43.08-.69h0a1.88,1.88,0,0,1-1.72.3C99.79,33.72,99.59,32.79,100,31.57Z"/><path class="cls-4" d="M105.49,32.7a2.49,2.49,0,0,1,3.1-1.84,2.23,2.23,0,0,1,1.37,3,4.49,4.49,0,0,1-.28.69l-2.75-.88a1.09,1.09,0,0,0,.88,1.15,2,2,0,0,0,1.07,0l.24,1.18a3.34,3.34,0,0,1-1.93,0A2.56,2.56,0,0,1,105.49,32.7Zm3.19.37a.66.66,0,0,0-.44-.92.79.79,0,0,0-1,.46Z"/><rect class="cls-4" x="5.38" y="41.78" width="53.52" height="78.18" rx="2.83"/><rect class="cls-4" x="60.42" y="41.78" width="53.52" height="78.18" rx="2.83"/><rect class="cls-1" x="55.23" y="45.88" width="9.24" height="2.4"/><rect class="cls-1" x="55.23" y="54.45" width="9.24" height="2.4"/><rect class="cls-1" x="55.23" y="63.03" width="9.24" height="2.4"/><rect class="cls-1" x="55.23" y="71.6" width="9.24" height="2.4"/><rect class="cls-1" x="55.23" y="80.17" width="9.24" height="2.4"/><rect class="cls-1" x="55.23" y="88.74" width="9.24" height="2.4"/><rect class="cls-1" x="55.23" y="97.31" width="9.24" height="2.4"/><rect class="cls-1" x="55.23" y="105.89" width="9.24" height="2.4"/><rect class="cls-1" x="55.23" y="114.46" width="9.24" height="2.4"/><text/><rect class="cls-5" x="14.42" y="49.7" width="36.09" height="27.68"/><rect class="cls-5" x="70.11" y="49.7" width="36.09" height="27.68"/><rect class="cls-5" x="70.11" y="85.97" width="36.09" height="7.75"/><rect class="cls-5" x="70.11" y="95.93" width="36.09" height="7.75"/></g></g></svg>